# xmcd
#
# Track frame offsets: 
#        150
#        10335
#        24647
#        43082
#        54947
#        65852
#        76845
#        88410
#        102710
#        116557
#        130860
#        143702
#        154720
#        171150
#        181927
#        194290
#        204305
#        216412
#
# Disc length: 3069 seconds
#
# Revision: 6
# Processed by: cddbd v1.5.2PL0 Copyright (c) Steve Scherf et al.
# Submitted via: ExactAudioCopy v0.95b3
#
DISCID=040bfb12
DTITLE=Ralph Stanley - Clinch Mountain Country [CD1]
DYEAR=1998
DGENRE=Bluegrass
TTITLE0=How Mountain Girls Can Love (with Hal Ketchum)
TTITLE1=Shouting On The Hills Of Glory (with Ricky Skaggs)
TTITLE2=Pretty Polly (with Patty Loveless)
TTITLE3=The Window Up Above (with George Jones)
TTITLE4=I Just Got Wise (with Dwight Yoakam)
TTITLE5=If That's The Way You Feel (with Vince Gill and Patty Loveless)
TTITLE6=Nobody's Love Is Like Mine (with Ricky Skaggs)
TTITLE7=Memories Of Mother (with Claire Lynch)
TTITLE8=The Lonesome River (with Bob Dylan)
TTITLE9=Old Love Letters (with Laurie Lewis)
TTITLE10=She's More To Be Pitied (with Marty Stuart)
TTITLE11=When I Wake Up To Sleep No More (with Judy and David Marshall)
TTITLE12=Another Night (with Joe Diffie)
TTITLE13=Gold Watch And Chain (with Gillian Welch)
TTITLE14=Thy Burdens Are Greater Than Mine (with Ralph Stanley II)
TTITLE15=I'll Take The Blame (with Rhonda Vincent)
TTITLE16=How Can We Thank Him For What He Has Done (with Diamond Rio)
TTITLE17=I've Just Seen The Rock Of Ages (with Jeff and Marty Raybon)
EXTD=
EXTT0=
EXTT1=
EXTT2=
EXTT3=
EXTT4=
EXTT5=
EXTT6=
EXTT7=
EXTT8=
EXTT9=
EXTT10=
EXTT11=
EXTT12=
EXTT13=
EXTT14=
EXTT15=
EXTT16=
EXTT17=
PLAYORDER=
